# xmcd
#
# Track frame offsets: 
#        150
#        17085
#        38250
#        59545
#        73197
#        87827
#        103435
#        115232
#        128180
#        145577
#        163390
#        176012
#        192102
#        204167
#
# Disc length: 2965 seconds
#
# Revision: 1
# Processed by: cddbd v1.5.2PL0 Copyright (c) Steve Scherf et al.
# Submitted via: ExactAudioCopyFreeDBPlugin 1.0
#
DISCID=c40b930e
DTITLE=Various Artist - Mobil 1 Show Music - No Rodeio
DYEAR=2005
DGENRE=Country
TTITLE0=Zezé Di Camargo and Luciano - Toma Juízo
TTITLE1=Bruno e Marrone - Será (SERA)
TTITLE2=Chitãozinho and Xororó - Sinônimos
TTITLE3=Luiz Cláudio and Giuliano - Eu Sou Peão
TTITLE4=Leonardo - Meu Mel (MUSIC)
TTITLE5=Zezé Di Camargo and Luciano - Nosso Amor É Ouro
TTITLE6=Sérgio Reis - Fio De Cabelo
TTITLE7=Rionegro and Solimões - É Amor E É Paixão
TTITLE8=Bruno e Marrone - Inevitável
TTITLE9=Leandro and Leonardo - Um Sonhador
TTITLE10=Gian and Giovani - Caí No Laço
TTITLE11=Zezé Di Camargo and Luciano - Pra Sempre
TTITLE12=Bruno e Marrone - Dormi Na Praça
TTITLE13=Renato Teixeira - Romaria
EXTD=
EXTT0=
EXTT1=
EXTT2=
EXTT3=
EXTT4=
EXTT5=
EXTT6=
EXTT7=
EXTT8=
EXTT9=
EXTT10=
EXTT11=
EXTT12=
EXTT13=
PLAYORDER=
